<svg width="317" height="316" viewBox="0 0 317 316" fill="none" xmlns="http://www.w3.org/2000/svg">
<path d="M158.416 315.887C245.566 315.887 316.215 245.238 316.215 158.088C316.215 70.938 245.566 0.289062 158.416 0.289062C71.2661 0.289062 0.617188 70.938 0.617188 158.088C0.617188 245.238 71.2661 315.887 158.416 315.887Z" fill="#1F2925"/>
<mask id="mask0_660_83399" style="mask-type:luminance" maskUnits="userSpaceOnUse" x="59" y="72" width="199" height="157">
<path d="M257.606 72.7266H59.2305V228.421H257.606V72.7266Z" fill="white"/>
</mask>
<g mask="url(#mask0_660_83399)">
<path d="M179.35 72.7266H137.475C132.652 72.7266 128.257 75.4786 126.164 79.805L104.756 124.069C102.078 129.604 106.127 136.026 112.3 136.026H141.19C145.208 136.026 148.87 133.732 150.617 130.126L158.413 114.009L198.351 196.574L144.392 157.668C142.246 156.125 139.673 155.291 137.025 155.291H97.5259C92.7023 155.291 88.308 158.043 86.2148 162.369L60.067 216.464C57.3884 221.999 61.4377 228.421 67.6114 228.421H96.5003C100.518 228.421 104.18 226.128 105.928 222.521L127.158 178.632L185.649 222.969C190.315 226.503 196.007 228.421 201.867 228.421H249.224C255.398 228.421 259.447 221.999 256.769 216.464L190.661 79.805C188.568 75.4786 184.173 72.7266 179.35 72.7266Z" fill="#D7FE51"/>
</g>
</svg>
