<?xml version="1.0" encoding="UTF-8"?>
<svg id="Layer_1" xmlns="http://www.w3.org/2000/svg" version="1.1" viewBox="0 0 200 200">
  <defs>
    <style>
      .st0 {
        fill: #6666fe;
      }
    </style>
  </defs>
  <!-- White circular background -->
  <circle cx="100" cy="100" r="100" fill="#ffffff"/>
  <path class="st0" d="M142.7,61.5h-1.4c-19.2,0-30.6,12.1-38.4,22.6-3,4.1-5.8,8.3-8.4,12.4-5,7.8-9.8,15.1-15.4,20.4-5.9,5.6-13.4,8.6-21.5,8.6-6.6-.2-12.8-3-17.4-7.7-4.6-4.8-7.1-11.1-7.1-17.7s2.8-13.4,7.5-18.1c4.8-4.8,11.2-7.5,18.1-7.5h0c2.8,0,6,.6,9.2,1.6.6.2,1.1.7,1.3,1.3.2.7.1,1.4-.3,1.9l-16.6,23.7c-.5.7-.6,1.6-.2,2.4.4.8,1.2,1.2,2,1.2h9.4c1.3,0,2.5-.6,3.2-1.7l17.1-24.6c.7-1,1.1-2.1,1.4-3.3.2-1.2.2-2.4,0-3.5-.3-1.2-.8-2.3-1.4-3.2-.7-1-1.6-1.8-2.6-2.4-.7-.4-1.4-.8-2.2-1.2-6.3-3.4-13.4-5.2-20.6-5.2-10.3,0-19.9,4-27.2,11.3-7.2,7.2-11.3,17.1-11.3,27.3s3.8,19.5,10.8,26.7c7,7.3,16.4,11.4,26.4,11.7,10.8,0,20.4-3.7,29.2-11.4,7.8-6.8,13.9-15.7,18.9-23.5,3.9-6.1,7.6-11.8,11.6-16.5,1.4-1.7,2.8-3.1,4.2-4.4,6.1-5.7,12.6-8.3,20.3-8.3h1c6.6.2,12.8,2.9,17.4,7.7,3.9,4.1,6.5,9.6,7,15.3.1.9.2,1.7.2,2.6,0,6.8-2.7,13.2-7.5,18-4.8,4.8-11.2,7.5-18.1,7.5h0c-3.5,0-6.9-.9-9.2-1.6-.6-.2-1.1-.7-1.3-1.3-.2-.7-.1-1.4.3-2l16.6-23.5c.5-.7.6-1.6.2-2.4-.4-.8-1.2-1.2-2-1.2h-9.4c-1.3,0-2.4.6-3.2,1.7l-17.1,24.4c-.7,1-1.1,2.1-1.4,3.3-.2,1.2-.2,2.4,0,3.5.3,1.2.8,2.3,1.4,3.2.7,1,1.6,1.8,2.6,2.4.7.4,1.4.8,2.1,1.2,6.3,3.4,13.4,5.2,20.6,5.2,10.3,0,20-4,27.3-11.3,7.3-7.3,11.3-16.9,11.3-27.1s-3.9-19.8-10.8-26.9c-7-7.3-16.4-11.4-26.4-11.7Z"/>
</svg>
